<svg xmlns="http://www.w3.org/2000/svg" width="972.0" height="464.0" viewBox="0 0 972.0 464.0" font-family="'Source Sans Pro','Helvetica Neue',Helvetica,Arial,sans-serif">
<title>Figure 2: capability survival matrix</title>
<rect width="972.0" height="464.0" fill="#ffffff"/>
<text x="28.0" y="34.0" font-size="15.0" text-anchor="start" fill="#1b1b1f" font-weight="600">Capability survival by placement/repair strategy</text>
<text x="28.0" y="54.0" font-size="10.5" text-anchor="start" fill="#6b7280" font-weight="normal">mean over 30 seeds; 1.00 = the collective still answers after the intervention</text>
<text x="247.0" y="108.0" font-size="9.5" text-anchor="start" fill="#6b7280" font-weight="normal" transform="rotate(-38.0 247.0 108.0)">node failure</text>
<text x="321.0" y="108.0" font-size="9.5" text-anchor="start" fill="#6b7280" font-weight="normal" transform="rotate(-38.0 321.0 108.0)">memory deletion</text>
<text x="395.0" y="108.0" font-size="9.5" text-anchor="start" fill="#6b7280" font-weight="normal" transform="rotate(-38.0 395.0 108.0)">route removal</text>
<text x="469.0" y="108.0" font-size="9.5" text-anchor="start" fill="#6b7280" font-weight="normal" transform="rotate(-38.0 469.0 108.0)">edge corruption</text>
<text x="543.0" y="108.0" font-size="9.5" text-anchor="start" fill="#6b7280" font-weight="normal" transform="rotate(-38.0 543.0 108.0)">stale knowledge</text>
<text x="617.0" y="108.0" font-size="9.5" text-anchor="start" fill="#6b7280" font-weight="normal" transform="rotate(-38.0 617.0 108.0)">authorization revocation</text>
<text x="691.0" y="108.0" font-size="9.5" text-anchor="start" fill="#6b7280" font-weight="normal" transform="rotate(-38.0 691.0 108.0)">lineage root failure</text>
<text x="765.0" y="108.0" font-size="9.5" text-anchor="start" fill="#6b7280" font-weight="normal" transform="rotate(-38.0 765.0 108.0)">worst single domain failure</text>
<text x="839.0" y="108.0" font-size="9.5" text-anchor="start" fill="#6b7280" font-weight="normal" transform="rotate(-38.0 839.0 108.0)">network partition</text>
<text x="198.0" y="139.0" font-size="10.5" text-anchor="end" fill="#1b1b1f" font-weight="normal">isolated local</text>
<rect x="210.0" y="118.0" width="72.0" height="32.0" fill="#f3f6f9" stroke="#d8dade"/>
<text x="246.0" y="139.0" font-size="10.0" text-anchor="middle" fill="#1b1b1f" font-weight="normal">0.00</text>
<rect x="284.0" y="118.0" width="72.0" height="32.0" fill="#f3f6f9" stroke="#d8dade"/>
<text x="320.0" y="139.0" font-size="10.0" text-anchor="middle" fill="#1b1b1f" font-weight="normal">0.00</text>
<rect x="358.0" y="118.0" width="72.0" height="32.0" fill="#f3f6f9" stroke="#d8dade"/>
<text x="394.0" y="139.0" font-size="10.0" text-anchor="middle" fill="#1b1b1f" font-weight="normal">0.00</text>
<rect x="432.0" y="118.0" width="72.0" height="32.0" fill="#f3f6f9" stroke="#d8dade"/>
<text x="468.0" y="139.0" font-size="10.0" text-anchor="middle" fill="#1b1b1f" font-weight="normal">0.00</text>
<rect x="506.0" y="118.0" width="72.0" height="32.0" fill="#f3f6f9" stroke="#d8dade"/>
<text x="542.0" y="139.0" font-size="10.0" text-anchor="middle" fill="#1b1b1f" font-weight="normal">0.00</text>
<rect x="580.0" y="118.0" width="72.0" height="32.0" fill="#f3f6f9" stroke="#d8dade"/>
<text x="616.0" y="139.0" font-size="10.0" text-anchor="middle" fill="#1b1b1f" font-weight="normal">0.00</text>
<rect x="654.0" y="118.0" width="72.0" height="32.0" fill="#f3f6f9" stroke="#d8dade"/>
<text x="690.0" y="139.0" font-size="10.0" text-anchor="middle" fill="#1b1b1f" font-weight="normal">0.00</text>
<rect x="728.0" y="118.0" width="72.0" height="32.0" fill="#f3f6f9" stroke="#d8dade"/>
<text x="764.0" y="139.0" font-size="10.0" text-anchor="middle" fill="#1b1b1f" font-weight="normal">0.00</text>
<rect x="802.0" y="118.0" width="72.0" height="32.0" fill="#f3f6f9" stroke="#d8dade"/>
<text x="838.0" y="139.0" font-size="10.0" text-anchor="middle" fill="#1b1b1f" font-weight="normal">0.00</text>
<text x="886.0" y="139.0" font-size="10.5" text-anchor="start" fill="#1b1b1f" font-weight="600">0.00</text>
<text x="198.0" y="173.0" font-size="10.5" text-anchor="end" fill="#1b1b1f" font-weight="normal">centralized</text>
<rect x="210.0" y="152.0" width="72.0" height="32.0" fill="#f3f6f9" stroke="#d8dade"/>
<text x="246.0" y="173.0" font-size="10.0" text-anchor="middle" fill="#1b1b1f" font-weight="normal">0.00</text>
<rect x="284.0" y="152.0" width="72.0" height="32.0" fill="#f3f6f9" stroke="#d8dade"/>
<text x="320.0" y="173.0" font-size="10.0" text-anchor="middle" fill="#1b1b1f" font-weight="normal">0.00</text>
<rect x="358.0" y="152.0" width="72.0" height="32.0" fill="#f3f6f9" stroke="#d8dade"/>
<text x="394.0" y="173.0" font-size="10.0" text-anchor="middle" fill="#1b1b1f" font-weight="normal">0.00</text>
<rect x="432.0" y="152.0" width="72.0" height="32.0" fill="#f3f6f9" stroke="#d8dade"/>
<text x="468.0" y="173.0" font-size="10.0" text-anchor="middle" fill="#1b1b1f" font-weight="normal">0.00</text>
<rect x="506.0" y="152.0" width="72.0" height="32.0" fill="#f3f6f9" stroke="#d8dade"/>
<text x="542.0" y="173.0" font-size="10.0" text-anchor="middle" fill="#1b1b1f" font-weight="normal">0.00</text>
<rect x="580.0" y="152.0" width="72.0" height="32.0" fill="#f3f6f9" stroke="#d8dade"/>
<text x="616.0" y="173.0" font-size="10.0" text-anchor="middle" fill="#1b1b1f" font-weight="normal">0.00</text>
<rect x="654.0" y="152.0" width="72.0" height="32.0" fill="#f3f6f9" stroke="#d8dade"/>
<text x="690.0" y="173.0" font-size="10.0" text-anchor="middle" fill="#1b1b1f" font-weight="normal">0.00</text>
<rect x="728.0" y="152.0" width="72.0" height="32.0" fill="#f3f6f9" stroke="#d8dade"/>
<text x="764.0" y="173.0" font-size="10.0" text-anchor="middle" fill="#1b1b1f" font-weight="normal">0.00</text>
<rect x="802.0" y="152.0" width="72.0" height="32.0" fill="#174e8f" stroke="#d8dade"/>
<text x="838.0" y="173.0" font-size="10.0" text-anchor="middle" fill="#ffffff" font-weight="normal">1.00</text>
<text x="886.0" y="173.0" font-size="10.5" text-anchor="start" fill="#1b1b1f" font-weight="600">0.11</text>
<text x="198.0" y="207.0" font-size="10.5" text-anchor="end" fill="#1b1b1f" font-weight="normal">fixed replication</text>
<rect x="210.0" y="186.0" width="72.0" height="32.0" fill="#174e8f" stroke="#d8dade"/>
<text x="246.0" y="207.0" font-size="10.0" text-anchor="middle" fill="#ffffff" font-weight="normal">1.00</text>
<rect x="284.0" y="186.0" width="72.0" height="32.0" fill="#174e8f" stroke="#d8dade"/>
<text x="320.0" y="207.0" font-size="10.0" text-anchor="middle" fill="#ffffff" font-weight="normal">1.00</text>
<rect x="358.0" y="186.0" width="72.0" height="32.0" fill="#174e8f" stroke="#d8dade"/>
<text x="394.0" y="207.0" font-size="10.0" text-anchor="middle" fill="#ffffff" font-weight="normal">1.00</text>
<rect x="432.0" y="186.0" width="72.0" height="32.0" fill="#174e8f" stroke="#d8dade"/>
<text x="468.0" y="207.0" font-size="10.0" text-anchor="middle" fill="#ffffff" font-weight="normal">1.00</text>
<rect x="506.0" y="186.0" width="72.0" height="32.0" fill="#174e8f" stroke="#d8dade"/>
<text x="542.0" y="207.0" font-size="10.0" text-anchor="middle" fill="#ffffff" font-weight="normal">1.00</text>
<rect x="580.0" y="186.0" width="72.0" height="32.0" fill="#f3f6f9" stroke="#d8dade"/>
<text x="616.0" y="207.0" font-size="10.0" text-anchor="middle" fill="#1b1b1f" font-weight="normal">0.00</text>
<rect x="654.0" y="186.0" width="72.0" height="32.0" fill="#f3f6f9" stroke="#d8dade"/>
<text x="690.0" y="207.0" font-size="10.0" text-anchor="middle" fill="#1b1b1f" font-weight="normal">0.00</text>
<rect x="728.0" y="186.0" width="72.0" height="32.0" fill="#f3f6f9" stroke="#d8dade"/>
<text x="764.0" y="207.0" font-size="10.0" text-anchor="middle" fill="#1b1b1f" font-weight="normal">0.00</text>
<rect x="802.0" y="186.0" width="72.0" height="32.0" fill="#f3f6f9" stroke="#d8dade"/>
<text x="838.0" y="207.0" font-size="10.0" text-anchor="middle" fill="#1b1b1f" font-weight="normal">0.00</text>
<text x="886.0" y="207.0" font-size="10.5" text-anchor="start" fill="#1b1b1f" font-weight="600">0.56</text>
<text x="198.0" y="241.0" font-size="10.5" text-anchor="end" fill="#1b1b1f" font-weight="normal">source-count repair</text>
<rect x="210.0" y="220.0" width="72.0" height="32.0" fill="#174e8f" stroke="#d8dade"/>
<text x="246.0" y="241.0" font-size="10.0" text-anchor="middle" fill="#ffffff" font-weight="normal">1.00</text>
<rect x="284.0" y="220.0" width="72.0" height="32.0" fill="#174e8f" stroke="#d8dade"/>
<text x="320.0" y="241.0" font-size="10.0" text-anchor="middle" fill="#ffffff" font-weight="normal">1.00</text>
<rect x="358.0" y="220.0" width="72.0" height="32.0" fill="#174e8f" stroke="#d8dade"/>
<text x="394.0" y="241.0" font-size="10.0" text-anchor="middle" fill="#ffffff" font-weight="normal">1.00</text>
<rect x="432.0" y="220.0" width="72.0" height="32.0" fill="#174e8f" stroke="#d8dade"/>
<text x="468.0" y="241.0" font-size="10.0" text-anchor="middle" fill="#ffffff" font-weight="normal">1.00</text>
<rect x="506.0" y="220.0" width="72.0" height="32.0" fill="#174e8f" stroke="#d8dade"/>
<text x="542.0" y="241.0" font-size="10.0" text-anchor="middle" fill="#ffffff" font-weight="normal">1.00</text>
<rect x="580.0" y="220.0" width="72.0" height="32.0" fill="#f3f6f9" stroke="#d8dade"/>
<text x="616.0" y="241.0" font-size="10.0" text-anchor="middle" fill="#1b1b1f" font-weight="normal">0.00</text>
<rect x="654.0" y="220.0" width="72.0" height="32.0" fill="#f3f6f9" stroke="#d8dade"/>
<text x="690.0" y="241.0" font-size="10.0" text-anchor="middle" fill="#1b1b1f" font-weight="normal">0.00</text>
<rect x="728.0" y="220.0" width="72.0" height="32.0" fill="#f3f6f9" stroke="#d8dade"/>
<text x="764.0" y="241.0" font-size="10.0" text-anchor="middle" fill="#1b1b1f" font-weight="normal">0.00</text>
<rect x="802.0" y="220.0" width="72.0" height="32.0" fill="#f3f6f9" stroke="#d8dade"/>
<text x="838.0" y="241.0" font-size="10.0" text-anchor="middle" fill="#1b1b1f" font-weight="normal">0.00</text>
<text x="886.0" y="241.0" font-size="10.5" text-anchor="start" fill="#1b1b1f" font-weight="600">0.56</text>
<text x="198.0" y="275.0" font-size="10.5" text-anchor="end" fill="#1b1b1f" font-weight="normal">full replication</text>
<rect x="210.0" y="254.0" width="72.0" height="32.0" fill="#174e8f" stroke="#d8dade"/>
<text x="246.0" y="275.0" font-size="10.0" text-anchor="middle" fill="#ffffff" font-weight="normal">1.00</text>
<rect x="284.0" y="254.0" width="72.0" height="32.0" fill="#174e8f" stroke="#d8dade"/>
<text x="320.0" y="275.0" font-size="10.0" text-anchor="middle" fill="#ffffff" font-weight="normal">1.00</text>
<rect x="358.0" y="254.0" width="72.0" height="32.0" fill="#174e8f" stroke="#d8dade"/>
<text x="394.0" y="275.0" font-size="10.0" text-anchor="middle" fill="#ffffff" font-weight="normal">1.00</text>
<rect x="432.0" y="254.0" width="72.0" height="32.0" fill="#174e8f" stroke="#d8dade"/>
<text x="468.0" y="275.0" font-size="10.0" text-anchor="middle" fill="#ffffff" font-weight="normal">1.00</text>
<rect x="506.0" y="254.0" width="72.0" height="32.0" fill="#174e8f" stroke="#d8dade"/>
<text x="542.0" y="275.0" font-size="10.0" text-anchor="middle" fill="#ffffff" font-weight="normal">1.00</text>
<rect x="580.0" y="254.0" width="72.0" height="32.0" fill="#f3f6f9" stroke="#d8dade"/>
<text x="616.0" y="275.0" font-size="10.0" text-anchor="middle" fill="#1b1b1f" font-weight="normal">0.00</text>
<rect x="654.0" y="254.0" width="72.0" height="32.0" fill="#f3f6f9" stroke="#d8dade"/>
<text x="690.0" y="275.0" font-size="10.0" text-anchor="middle" fill="#1b1b1f" font-weight="normal">0.00</text>
<rect x="728.0" y="254.0" width="72.0" height="32.0" fill="#f3f6f9" stroke="#d8dade"/>
<text x="764.0" y="275.0" font-size="10.0" text-anchor="middle" fill="#1b1b1f" font-weight="normal">0.00</text>
<rect x="802.0" y="254.0" width="72.0" height="32.0" fill="#174e8f" stroke="#d8dade"/>
<text x="838.0" y="275.0" font-size="10.0" text-anchor="middle" fill="#ffffff" font-weight="normal">1.00</text>
<text x="886.0" y="275.0" font-size="10.5" text-anchor="start" fill="#1b1b1f" font-weight="600">0.67</text>
<text x="198.0" y="309.0" font-size="10.5" text-anchor="end" fill="#1b1b1f" font-weight="normal">random diversification</text>
<rect x="210.0" y="288.0" width="72.0" height="32.0" fill="#174e8f" stroke="#d8dade"/>
<text x="246.0" y="309.0" font-size="10.0" text-anchor="middle" fill="#ffffff" font-weight="normal">1.00</text>
<rect x="284.0" y="288.0" width="72.0" height="32.0" fill="#174e8f" stroke="#d8dade"/>
<text x="320.0" y="309.0" font-size="10.0" text-anchor="middle" fill="#ffffff" font-weight="normal">1.00</text>
<rect x="358.0" y="288.0" width="72.0" height="32.0" fill="#174e8f" stroke="#d8dade"/>
<text x="394.0" y="309.0" font-size="10.0" text-anchor="middle" fill="#ffffff" font-weight="normal">1.00</text>
<rect x="432.0" y="288.0" width="72.0" height="32.0" fill="#174e8f" stroke="#d8dade"/>
<text x="468.0" y="309.0" font-size="10.0" text-anchor="middle" fill="#ffffff" font-weight="normal">1.00</text>
<rect x="506.0" y="288.0" width="72.0" height="32.0" fill="#174e8f" stroke="#d8dade"/>
<text x="542.0" y="309.0" font-size="10.0" text-anchor="middle" fill="#ffffff" font-weight="normal">1.00</text>
<rect x="580.0" y="288.0" width="72.0" height="32.0" fill="#6086b2" stroke="#d8dade"/>
<text x="616.0" y="309.0" font-size="10.0" text-anchor="middle" fill="#ffffff" font-weight="normal">0.67</text>
<rect x="654.0" y="288.0" width="72.0" height="32.0" fill="#6086b2" stroke="#d8dade"/>
<text x="690.0" y="309.0" font-size="10.0" text-anchor="middle" fill="#ffffff" font-weight="normal">0.67</text>
<rect x="728.0" y="288.0" width="72.0" height="32.0" fill="#f3f6f9" stroke="#d8dade"/>
<text x="764.0" y="309.0" font-size="10.0" text-anchor="middle" fill="#1b1b1f" font-weight="normal">0.00</text>
<rect x="802.0" y="288.0" width="72.0" height="32.0" fill="#f3f6f9" stroke="#d8dade"/>
<text x="838.0" y="309.0" font-size="10.0" text-anchor="middle" fill="#1b1b1f" font-weight="normal">0.00</text>
<text x="886.0" y="309.0" font-size="10.5" text-anchor="start" fill="#1b1b1f" font-weight="600">0.70</text>
<text x="198.0" y="343.0" font-size="10.5" text-anchor="end" fill="#1b1b1f" font-weight="normal">lineage-aware repair</text>
<rect x="210.0" y="322.0" width="72.0" height="32.0" fill="#174e8f" stroke="#d8dade"/>
<text x="246.0" y="343.0" font-size="10.0" text-anchor="middle" fill="#ffffff" font-weight="normal">1.00</text>
<rect x="284.0" y="322.0" width="72.0" height="32.0" fill="#174e8f" stroke="#d8dade"/>
<text x="320.0" y="343.0" font-size="10.0" text-anchor="middle" fill="#ffffff" font-weight="normal">1.00</text>
<rect x="358.0" y="322.0" width="72.0" height="32.0" fill="#174e8f" stroke="#d8dade"/>
<text x="394.0" y="343.0" font-size="10.0" text-anchor="middle" fill="#ffffff" font-weight="normal">1.00</text>
<rect x="432.0" y="322.0" width="72.0" height="32.0" fill="#174e8f" stroke="#d8dade"/>
<text x="468.0" y="343.0" font-size="10.0" text-anchor="middle" fill="#ffffff" font-weight="normal">1.00</text>
<rect x="506.0" y="322.0" width="72.0" height="32.0" fill="#174e8f" stroke="#d8dade"/>
<text x="542.0" y="343.0" font-size="10.0" text-anchor="middle" fill="#ffffff" font-weight="normal">1.00</text>
<rect x="580.0" y="322.0" width="72.0" height="32.0" fill="#174e8f" stroke="#d8dade"/>
<text x="616.0" y="343.0" font-size="10.0" text-anchor="middle" fill="#ffffff" font-weight="normal">1.00</text>
<rect x="654.0" y="322.0" width="72.0" height="32.0" fill="#174e8f" stroke="#d8dade"/>
<text x="690.0" y="343.0" font-size="10.0" text-anchor="middle" fill="#ffffff" font-weight="normal">1.00</text>
<rect x="728.0" y="322.0" width="72.0" height="32.0" fill="#f3f6f9" stroke="#d8dade"/>
<text x="764.0" y="343.0" font-size="10.0" text-anchor="middle" fill="#1b1b1f" font-weight="normal">0.00</text>
<rect x="802.0" y="322.0" width="72.0" height="32.0" fill="#f3f6f9" stroke="#d8dade"/>
<text x="838.0" y="343.0" font-size="10.0" text-anchor="middle" fill="#1b1b1f" font-weight="normal">0.00</text>
<text x="886.0" y="343.0" font-size="10.5" text-anchor="start" fill="#1b1b1f" font-weight="600">0.78</text>
<text x="198.0" y="377.0" font-size="10.5" text-anchor="end" fill="#1b1b1f" font-weight="normal">oracle min-cut</text>
<rect x="210.0" y="356.0" width="72.0" height="32.0" fill="#174e8f" stroke="#d8dade"/>
<text x="246.0" y="377.0" font-size="10.0" text-anchor="middle" fill="#ffffff" font-weight="normal">1.00</text>
<rect x="284.0" y="356.0" width="72.0" height="32.0" fill="#174e8f" stroke="#d8dade"/>
<text x="320.0" y="377.0" font-size="10.0" text-anchor="middle" fill="#ffffff" font-weight="normal">1.00</text>
<rect x="358.0" y="356.0" width="72.0" height="32.0" fill="#174e8f" stroke="#d8dade"/>
<text x="394.0" y="377.0" font-size="10.0" text-anchor="middle" fill="#ffffff" font-weight="normal">1.00</text>
<rect x="432.0" y="356.0" width="72.0" height="32.0" fill="#174e8f" stroke="#d8dade"/>
<text x="468.0" y="377.0" font-size="10.0" text-anchor="middle" fill="#ffffff" font-weight="normal">1.00</text>
<rect x="506.0" y="356.0" width="72.0" height="32.0" fill="#174e8f" stroke="#d8dade"/>
<text x="542.0" y="377.0" font-size="10.0" text-anchor="middle" fill="#ffffff" font-weight="normal">1.00</text>
<rect x="580.0" y="356.0" width="72.0" height="32.0" fill="#174e8f" stroke="#d8dade"/>
<text x="616.0" y="377.0" font-size="10.0" text-anchor="middle" fill="#ffffff" font-weight="normal">1.00</text>
<rect x="654.0" y="356.0" width="72.0" height="32.0" fill="#174e8f" stroke="#d8dade"/>
<text x="690.0" y="377.0" font-size="10.0" text-anchor="middle" fill="#ffffff" font-weight="normal">1.00</text>
<rect x="728.0" y="356.0" width="72.0" height="32.0" fill="#174e8f" stroke="#d8dade"/>
<text x="764.0" y="377.0" font-size="10.0" text-anchor="middle" fill="#ffffff" font-weight="normal">1.00</text>
<rect x="802.0" y="356.0" width="72.0" height="32.0" fill="#f3f6f9" stroke="#d8dade"/>
<text x="838.0" y="377.0" font-size="10.0" text-anchor="middle" fill="#1b1b1f" font-weight="normal">0.00</text>
<text x="886.0" y="377.0" font-size="10.5" text-anchor="start" fill="#1b1b1f" font-weight="600">0.89</text>
<text x="886.0" y="108.0" font-size="9.5" text-anchor="start" fill="#6b7280" font-weight="normal">mean</text>
<text x="28.0" y="434.0" font-size="10.0" text-anchor="start" fill="#6b7280" font-weight="normal">Replica count does not order the rows: full replication (8 records) sits below lineage-aware repair (4).</text>
<text x="28.0" y="450.0" font-size="10.0" text-anchor="start" fill="#6b7280" font-weight="normal">Every strategy fails the network partition except the two that keep both premises on one node — reported against interest.</text>
</svg>
